<svg id="c9110790-68f5-421a-bd61-01bf55405315" xmlns="http://www.w3.org/2000/svg" xmlns:xlink="http://www.w3.org/1999/xlink" viewBox="0 0 915.33 848.61">
  <defs>
    <style>
      .cls-1 {
        fill: #6c63ff;
      }

      .cls-2 {
        opacity: 0.4;
      }

      .cls-12, .cls-2, .cls-3 {
        isolation: isolate;
      }

      .cls-3, .cls-8 {
        opacity: 0.1;
      }

      .cls-4 {
        fill: url(#linear-gradient);
      }

      .cls-5 {
        fill: url(#linear-gradient-2);
      }

      .cls-6 {
        fill: #fbbebe;
      }

      .cls-7 {
        fill: #3f3d56;
      }

      .cls-9 {
        fill: #fff;
      }

      .cls-10 {
        fill: #ffd037;
      }

      .cls-11 {
        fill: #a8a8a8;
      }

      .cls-12 {
        opacity: 0.2;
      }

      .cls-13 {
        fill: none;
        stroke: #535461;
        stroke-miterlimit: 10;
        stroke-width: 2px;
      }

      .cls-14 {
        fill: #ff6584;
      }
    </style>
    <linearGradient id="linear-gradient" x1="597.13" y1="-16.92" x2="597.13" y2="647.57" gradientTransform="matrix(1, 0, 0, -1, -142.33, 824.39)" gradientUnits="userSpaceOnUse">
      <stop offset="0" stop-color="gray" stop-opacity="0.25"/>
      <stop offset="0.54" stop-color="gray" stop-opacity="0.12"/>
      <stop offset="1" stop-color="gray" stop-opacity="0.1"/>
    </linearGradient>
    <linearGradient id="linear-gradient-2" x1="559.39" y1="359.14" x2="559.39" y2="361.01" xlink:href="#linear-gradient"/>
  </defs>
  <title>thk</title>
  <ellipse class="cls-1" cx="491.87" cy="831.7" rx="221.12" ry="16.91"/>
  <ellipse class="cls-2" cx="491.87" cy="831.7" rx="221.12" ry="16.91"/>
  <!--STArT_BIG_SHAPE-->
  <path class="cls-1" d="M282.67,82.47c31-27.67,79.77-33.31,124.15-31.08,139.37,6.92,265.19,74.21,374,150.32C820.21,229.27,859,259,884.58,296.9c52.06,77.24,36.61,184.25-35.78,247.88-24.63,21.65-54.48,38.25-85.13,53-54.5,26.16-113.31,47.16-175.16,53.13-44.11,4.27-88.77.8-132.62-5.15-122.5-16.68-242.76-53.37-343.56-116.29C68.12,501.9,26.45,467.63,8.23,423S1.67,321.9,46.81,295.5c18.67-10.92,41-15.85,62.85-20.48,32.17-6.82,64.86-13.54,93.89-27.39,30-14.32,65.48-42,59.55-73.67C256.73,140,251.67,110.11,282.67,82.47Z" transform="translate(0 -0.18)"/>
  <path class="cls-2" d="M282.67,82.47c31-27.67,79.77-33.31,124.15-31.08,139.37,6.92,265.19,74.21,374,150.32C820.21,229.27,859,259,884.58,296.9c52.06,77.24,36.61,184.25-35.78,247.88-24.63,21.65-54.48,38.25-85.13,53-54.5,26.16-113.31,47.16-175.16,53.13-44.11,4.27-88.77.8-132.62-5.15-122.5-16.68-242.76-53.37-343.56-116.29C68.12,501.9,26.45,467.63,8.23,423S1.67,321.9,46.81,295.5c18.67-10.92,41-15.85,62.85-20.48,32.17-6.82,64.86-13.54,93.89-27.39,30-14.32,65.48-42,59.55-73.67C256.73,140,251.67,110.11,282.67,82.47Z" transform="translate(0 -0.18)"/>
  <!--END_BIG_SHAPE-->

  <path class="cls-5" d="M417.15,465.17a3.42,3.42,0,0,0-.22-1.79C417,464.82,417.08,465.48,417.15,465.17Z" transform="translate(0 -0.18)"/>
  <path class="cls-6" d="M537.11,410.86s3.78-2.58.09-4.1-5.86-6.2-6-7.74-3-18.66,6.86-15,14.47,7.64,14.37,10.76-1.7,22.9-1.7,22.9Z" transform="translate(0 -0.18)"/>
  <path class="cls-1" d="M561.09,424.45a5.86,5.86,0,0,1-.15,1.14c-.29,2-1,6.12-2.08,6.71-1.43.8-3.18-1.27-5.89-1.91-.48-.11-.9.31-1.29,1.1a8.11,8.11,0,0,0-.43,1.06c-1.5,4.54-2.29,14.88-2.89,18.86-.54,3.51-7.18,15.42-11.53,22.91-.65,1.13-1.26,2.16-1.78,3-1.2,2-2,3.31-2,3.31l-11-20.62V429.6a26.17,26.17,0,0,0,2-4.21h0a7.33,7.33,0,0,0,.55-3.4,1.7,1.7,0,0,0-.47-1,1.06,1.06,0,0,1-.21-.31,2,2,0,0,1-.1-.26,3.45,3.45,0,0,1-.14-.78V419c0-4.29,3-13.26,3-13.26s3.66,1.91,11.77,2.86S561.09,424.45,561.09,424.45Z" transform="translate(0 -0.18)"/>
  <path class="cls-3" d="M560.94,425.59c-.29,2-1,6.12-2.08,6.71-1.43.8-3.18-1.27-5.89-1.91-.48-.11-.9.31-1.29,1.1a9.79,9.79,0,0,0-.43,1.06c-5.47-2.66-15-7.48-15.61-8.84s-7.25-1.67-11-1.73H524a5,5,0,0,1-.24-2.31c.28-4.47,3-12.64,3-12.64s3.66,1.91,11.77,2.86C546.14,410.77,559.42,424.05,560.94,425.59Z" transform="translate(0 -0.18)"/>
  <path class="cls-1" d="M561.09,424.46s-.8,7.05-2.23,7.84-3.18-1.27-5.89-1.9c-.48-.12-.9.3-1.29,1.09-5.39-2.62-15.45-7.66-16-9.05s-8.12-1.71-11.68-1.75c-1.31-2.74,2.76-15,2.76-15s3.66,1.91,11.77,2.87S561.09,424.46,561.09,424.46Z" transform="translate(0 -0.18)"/>
  <path class="cls-1" d="M534,523.56c-2.23,2.23-16.71-8.59-20.68-9.23S495,453.25,495,453.25l2.17-34.06-8.46-31.34-1.1-4.1s.84-2.5,4.24,0,11.66,13.16,13.89,13.95,4.93,2.4,8.27,6.22,4.93,4.45,4.93,4.45,3.82,9.71,3.66,12.09,1.28,18.62,3,20.05S530.17,455,530.17,455s5.26,18.33,6.37,23.56q.11.46.15.78C537.38,483.15,536.27,521.33,534,523.56Z" transform="translate(0 -0.18)"/>
  <path class="cls-3" d="M509.22,447.72l10.5,2.81s2,18.14,2.74,19.1,3.3,38.18,3.3,38.18l-16.54-7.48-6.21-20V458.2Z" transform="translate(0 -0.18)"/>
  <path class="cls-6" d="M430.94,742.17a35.38,35.38,0,0,0-1.51,6c-2,10.84-2.41,28-2.41,28s2,8.91,1.38,10.4a43.93,43.93,0,0,0-1.11,7.21c-.17,1.56-.27,2.75-.27,2.75l-19.42-1.27s0-1.15.06-2.91c.13-3.92.54-10.82,1.85-14.48s-.12-19.64-1.13-28.9c-.43-4-.78-6.74-.78-6.74S434.21,733.65,430.94,742.17Z" transform="translate(0 -0.18)"/>
  <path class="cls-6" d="M506.73,747.39l-2.39,23.23s.63,7.42,0,10.6c-.36,1.81-.73,5.67-1,8.67-.18,2.27-.3,4.06-.3,4.06s-14.85,10.4-18.24,1.27a16.13,16.13,0,0,1-.84-3.42c-1.42-9.53,2.74-23.52,2.74-23.52V738.39l20.58,3.36Z" transform="translate(0 -0.18)"/>
  <path class="cls-3" d="M430.94,742.17a35.38,35.38,0,0,0-1.51,6,29.64,29.64,0,0,1-21,.79c-.43-4-.78-6.74-.78-6.74S434.21,733.65,430.94,742.17Z" transform="translate(0 -0.18)"/>
  <path class="cls-3" d="M507.31,741.74l-.58,5.63c-7.2,3.3-14.89,1.28-20-1v-8Z" transform="translate(0 -0.18)"/>
  <path class="cls-7" d="M424.44,480.6s-1.69,12.52-3.6,15.07-1.06,6.15-3,6.57-2.55,9.76-2.55,9.76l-1.62,20.58s-.43,4.24-2.76,5.3,0,6.79,0,6.79-2.5,4.88-1,7.64-3,15.48-3,15.48-1.91,24.61,0,28a27.87,27.87,0,0,1,3,10.82c0,2.12,1.06,41.79,1.06,41.79s-2.55,16.13-3.4,19.1,2.34,9.54.22,12.94-1.7,11-1.7,11-3.28,29.95-1.37,40.95-.61,13.36-.61,13.36A29.68,29.68,0,0,0,434,744.48s0-21.64,2.55-25.46,2.13-14.63,2.13-14.63.63-9.55,2.54-11.46,1.46-10.37,1.46-10.37,1.69-5.52,3.6-10,3-17,3-17a21.47,21.47,0,0,1,3-6.16c2.13-3,0-9.54,0-9.54s-2.33-4.25-.84-8.49,9.75-38.61,9.75-38.61l3.19-12.3,4.66,15.7s-.63,11.24,0,14.42,5.09,10,5.09,10v33.31s.43,22.49,2.13,26.09,2.54,17,2.54,17,5.73,39.25,2.12,45c0,0,16.34,11.66,29.28,2.12,0,0-2.76-7.85,0-10.61s4.66-37.34,4.66-37.34,1.7-13.79,1.49-17-2.33-18.24-1.06-21.42,3-63,3-63l2.12-26.51v-21.7a127.47,127.47,0,0,0-4.8-34.74c-3.59-12.65-8.56-27.16-12.74-28.07C502.79,483.71,437,491,424.44,480.6Z" transform="translate(0 -0.18)"/>
  <path class="cls-3" d="M427.29,793.72c-.17,1.56-.27,2.75-.27,2.75L407.6,795.2s0-1.15.06-2.91c9.11-8.08,18.19,1.43,18.19,1.43Z" transform="translate(0 -0.18)"/>
  <path class="cls-7" d="M428.5,794.39v11.78s-4,8-5.41,9.65c-.77.94-1.21,4.55-1.45,7.56-.19,2.4-.25,4.42-.25,4.42S423.94,838,404,837.56s-11.88-15.17-11.88-15.17l.11-.19c1-1.86,9.07-16.3,10-17.1s1.7-6.11,1.7-6.11l3.71-6c9.13-8.16,18.25,1.38,18.25,1.38Z" transform="translate(0 -0.18)"/>
  <path class="cls-3" d="M421.39,827.76S423.94,838,404,837.52s-11.88-15.13-11.88-15.13l.11-.19c.55,3,2.9,6.11,10.39,5.71,10.15-.53,16.34-3.12,19-4.53C421.45,825.74,421.39,827.76,421.39,827.76Z" transform="translate(0 -0.18)"/>
  <path class="cls-3" d="M503.37,789.87c-.18,2.27-.3,4.06-.3,4.06s-14.85,10.4-18.24,1.27a16.13,16.13,0,0,1-.84-3.42,7.24,7.24,0,0,0,.84-.72c2.43-3.6,15.37-3.71,16-2C501.22,790,502.45,790,503.37,789.87Z" transform="translate(0 -0.18)"/>
  <path class="cls-7" d="M497.24,841.24c-14,.88-16.41-7.73-16-14a18.94,18.94,0,0,1,1-5c1.7-4.65,1.52-13.49,1.52-13.49l-.67-15.91c.53.21,1.81-1.06,1.81-1.06,2.43-3.6,15.37-3.71,16-2s3.61.55,3.61.55-.64,10.82,3.81,19.51a47.83,47.83,0,0,1,4.6,17.3c.06.8.07,1.26.07,1.26S515.79,840.07,497.24,841.24Z" transform="translate(0 -0.18)"/>
  <path class="cls-3" d="M497.24,841.24c-14,.88-16.41-7.73-16-14,0,0,3.63,6.17,16.56,4.69a36.25,36.25,0,0,0,15.1-4.87c.06.8.07,1.26.07,1.26S515.79,840.07,497.24,841.24Z" transform="translate(0 -0.18)"/>
  <g class="cls-8">
    <path d="M511.67,499.32c-2.87-8.2-6-15-8.84-15.57l-2.53.26c2.64,1.42,5.54,7.74,8.19,15.31a158.47,158.47,0,0,1,8.7,52.24v16.7l-2.12,26.52s-1.7,59.82-3,63,.85,18.24,1.06,21.43-1.49,17-1.49,17-1.91,34.58-4.66,37.33,0,10.61,0,10.61a19,19,0,0,1-10,3.69,19.49,19.49,0,0,0,13.21-3.69s-2.76-7.85,0-10.61,4.66-37.33,4.66-37.33,1.7-13.79,1.49-17S514,661,515.28,657.78s3-63,3-63l2.12-26.52v-16.7A158.5,158.5,0,0,0,511.67,499.32Z" transform="translate(0 -0.18)"/>
  </g>
  <g class="cls-8">
    <path d="M408,745.78s2.52-2.34.61-13.37,1.27-40.94,1.27-40.94-.42-7.64,1.7-11-1.06-10-.22-12.94,3.4-19.1,3.4-19.1-1.09-39.69-1.09-41.82a27.61,27.61,0,0,0-3-10.81c-1.91-3.4,0-28,0-28s4.45-12.73,3-15.48,1-7.64,1-7.64-2.33-5.73,0-6.79,2.76-5.3,2.76-5.3L419.12,512s.64-9.33,2.55-9.76,1.06-4,3-6.57c1.43-1.91,2.75-9.44,3.31-13.08a13.19,13.19,0,0,1-3.52-2s-1.7,12.51-3.61,15.06-1.06,6.15-3,6.57-2.54,9.76-2.54,9.76l-1.64,20.59s-.43,4.24-2.76,5.3,0,6.79,0,6.79-2.5,4.88-1,7.64-3,15.48-3,15.48-1.91,24.61,0,28a27.61,27.61,0,0,1,3,10.81c0,2.13,1.06,41.79,1.06,41.79s-2.55,16.13-3.39,19.1,2.33,9.54.21,12.94-1.7,11-1.7,11-3.21,30-1.3,41-.61,13.37-.61,13.37a29.18,29.18,0,0,0,15.74,3.35A28.44,28.44,0,0,1,408,745.78Z" transform="translate(0 -0.18)"/>
  </g>
  <path class="cls-7" d="M489.8,282.51c2.63,2.46,4.34,5.73,6.61,8.53s5.48,5.27,9.08,5.08a24.22,24.22,0,0,1,3.18-.27,6.82,6.82,0,0,1,3.43,1.5c4.34,3.24,6.43,8.7,7.4,14s1,10.82,2.44,16.06c.48,1.78,1.19,3.64,2.7,4.69,2,1.34,4.54.93,6.91.89,3.14-.06,6.45.71,8.72,2.88s3.14,6,1.36,8.56a5.25,5.25,0,0,0-1.12,1.94,3.6,3.6,0,0,0,1,2.57l6.54,8.9c1.32,1.78,2.69,3.78,2.53,6a4.7,4.7,0,0,1-8.28,2.69c.71,2.21-1.47,4.5-3.77,4.8s-4.54-.73-6.63-1.74l-.17,3.77c-1.92,1-4-1-5.48-2.56s-4.68-2.46-5.41-.42a2.65,2.65,0,0,0,.62,2.48c2.67,3.33,8.93,2.48,10.77,6.34,1.19,2.5-.59,5.7-3.19,6.65s-5.59,0-7.82-1.6-4.41-4.39-7.32-4.37c-3.63,0-5.8,4.2-9.19,5.51-3.19,1.22-6.84-.37-9.33-2.71s-4.22-5.37-6.52-7.91c-5.92-6.53-14.89-9.12-23.25-11.91s-17.21-6.59-21.53-14.27c-1.32-2.37-2.16-5-3.8-7.17-2.82-3.68-7.56-5.4-10.65-8.85A13.67,13.67,0,0,1,427.54,318c1.46-3.09,4-5.48,6.09-8.22a27.66,27.66,0,0,0,5.43-16.22c0-2.2-.23-4.47.47-6.56,1.07-3.16,4.17-5.29,7.41-6.1s6.64-.52,10-.23c3.54.32,7.39,1.12,10.94,1,2.42-.11,4.28-2,6.62-2.64C479.58,277.56,486,278.66,489.8,282.51Z" transform="translate(0 -0.18)"/>
  <g class="cls-8">
    <path d="M517.78,308.84c1,5.33,1,10.82,2.45,16.05a10.17,10.17,0,0,0,1.59,3.61c-.12-.35-.23-.71-.32-1.06-1.39-5.24-1.47-10.73-2.44-16.06a28.59,28.59,0,0,0-3.21-9.22A31.72,31.72,0,0,1,517.78,308.84Z" transform="translate(0 -0.18)"/>
    <path d="M539.92,341.91a5.17,5.17,0,0,0-1.13,2,3.6,3.6,0,0,0,1,2.56c.09.12.17.24.26.35a2.29,2.29,0,0,1,0-.37,5.27,5.27,0,0,1,1.13-1.94c1.56-2.29,1.07-5.5-.61-7.72A6.19,6.19,0,0,1,539.92,341.91Z" transform="translate(0 -0.18)"/>
    <path d="M530.85,377.93a5.47,5.47,0,0,1-3.54,5.4c-2.61.94-5.59,0-7.82-1.61s-4.41-4.38-7.31-4.36c-3.64,0-5.8,4.2-9.2,5.5-3.19,1.23-6.84-.37-9.33-2.71s-4.22-5.37-6.51-7.9c-5.92-6.53-14.89-9.13-23.26-11.92s-17.16-6.57-21.49-14.22c.39.85.79,1.69,1.24,2.5,4.32,7.68,13.16,11.48,21.52,14.27s17.34,5.38,23.26,11.91c2.3,2.54,4,5.57,6.51,7.91s6.14,3.93,9.33,2.71c3.4-1.31,5.56-5.48,9.2-5.51,2.9,0,5,2.64,7.32,4.37a8.4,8.4,0,0,0,7.81,1.6c2.6-.95,4.39-4.15,3.2-6.65A4.57,4.57,0,0,0,530.85,377.93Z" transform="translate(0 -0.18)"/>
    <path d="M548.58,359.26a5.5,5.5,0,0,1,.28,2.05,4.71,4.71,0,0,1-8.29,2.7c.71,2.2-1.47,4.49-3.77,4.8s-4.54-.73-6.63-1.74c-.06,1.25-.11,2.51-.17,3.76-1.92,1-4-1-5.47-2.55s-4.68-2.47-5.42-.42a2.65,2.65,0,0,0,.62,2.47,5.12,5.12,0,0,0,.55.59,1.84,1.84,0,0,1,.1-.52c.74-2,3.89-1.12,5.42.42s3.55,3.57,5.48,2.56c0-1.26.11-2.51.16-3.77,2.09,1,4.34,2,6.64,1.74s4.48-2.59,3.76-4.8a4.71,4.71,0,0,0,8.29-2.69A7.51,7.51,0,0,0,548.58,359.26Z" transform="translate(0 -0.18)"/>
    <path d="M438.55,338.89c-2.81-3.68-7.56-5.39-10.64-8.85a11.78,11.78,0,0,1-1.17-1.54,12.89,12.89,0,0,0,2.44,4.09c3.08,3.45,7.83,5.17,10.64,8.85a13.57,13.57,0,0,1,1.07,1.64A22.33,22.33,0,0,0,438.55,338.89Z" transform="translate(0 -0.18)"/>
  </g>
  <path class="cls-6" d="M457.46,336.78s2.33,25.88-8.28,33.72,22.7,29.28,22.7,29.28l25.25-5.52s-12.31-11.45-12.31-16.33,2.12-32.25,5.52-35.43S457.46,336.78,457.46,336.78Z" transform="translate(0 -0.18)"/>
  <path class="cls-1" d="M450.08,336.78l-5.77,12.61s-8.6,5.1-9.23,5.57-7.48,8.28-7.48,8.28l-16.87,10.82-1-1.86a50.08,50.08,0,0,0-3.92-6.26c-1.43-1.59,0-18.45,0-18.45s3.34-3.82,2.15-10.66-1.35-33.73-1.35-33.73-1.27-22.6.48-27.37-4-19.89-4-19.89S386.87,239.72,388,236.39s13.53,0,13.53,0,4.93,2.55,7.47,2.71c1.54.09,9.77.13,16.08.14h7.47s5.25,18.29,4.62,20.2c-.13.37-.26.74-.38,1.1-.51,1.47-.9,2.78-.26,3.67.79,1.12,2.55,14.64,2.55,14.64l1.75,14.64s2.7,11.45,2.54,13.05-4.14,4.93-2.39,7.95,2.4,12.25,2.4,12.25,2.92,6.77,5.81,9.35A5.07,5.07,0,0,0,450.08,336.78Z" transform="translate(0 -0.18)"/>
  <circle class="cls-3" cx="476.92" cy="323.26" r="30.55"/>
  <circle class="cls-6" cx="476.92" cy="321.99" r="30.55"/>
  <path class="cls-9" d="M509.22,447.72c-2.76,3-3.39,32-1.76,34.58s-8.21,7.64-13.94,7.42-21.41,4.67-21.41,4.67-31.41-8.49-38-4.24S418.2,482.51,421,478.27s-3-10.18-3.82-12.51a18.88,18.88,0,0,1-.34-3h0c-.77-10.68-1.57-44.9-1.57-44.9V378.57l28.86-20.37A139.35,139.35,0,0,1,457.48,366a65.83,65.83,0,0,1,8.66,6.67c7.86,7.43,27.37,15.28,27.37,15.28s21.43,25.67,24.18,28.22S512,444.75,509.22,447.72Z" transform="translate(0 -0.18)"/>
  <path class="cls-3" d="M415.24,417.81V384s.88,61.53,1.57,78.68C416,452,415.24,417.81,415.24,417.81Z" transform="translate(0 -0.18)"/>
  <path class="cls-3" d="M416.93,465.25a3.39,3.39,0,0,1,.22,1.78C417.08,467.33,417,466.67,416.93,465.25Z" transform="translate(0 -0.18)"/>
  <path class="cls-3" d="M457.67,376.87a25.94,25.94,0,0,0-4.61,6.52c-1.59,3.5-37.82.64-37.82.64v-5.46L444.1,358.2A139.35,139.35,0,0,1,457.49,366C457.67,371.93,457.67,376.87,457.67,376.87Z" transform="translate(0 -0.18)"/>
  <path class="cls-3" d="M416.93,462.7a3.39,3.39,0,0,1,.22,1.78C417.08,464.79,417,464.13,416.93,462.7Z" transform="translate(0 -0.18)"/>
  <path class="cls-3" d="M450.08,336.78l-5.77,12.61s-8.6,5.1-9.23,5.57-7.48,8.28-7.48,8.28l-16.87,10.82-1-1.86c4.59-5.57,9.28-11.5,12-13.58,5.41-4.13-.16-4.61,0-5.41s11.94-5.09,15.12-8.11c2.59-2.47,9.79-7.28,12.34-9A4.88,4.88,0,0,0,450.08,336.78Z" transform="translate(0 -0.18)"/>
  <path class="cls-1" d="M450.08,336.78s-10.07,6.52-13.25,9.54-15,7.32-15.12,8.12,5.41,1.27,0,5.41-18.61,23.54-23.39,25-37.38,15-37.38,15-10.66,10-12.25,10,9.7,10.82,9.7,10.82,10.18,8.12,11.3,9.39,29,16.33,29,16.33,4.78,1.43,5.25,2.86,6.84,5.41,6.84,5.41,7.11,8.17,6.42,11.08-1.91-83-1.91-83,36.23,2.86,37.82-.64a25.94,25.94,0,0,1,4.61-6.52s-.1-29.43-2.13-31.61S450.12,339.48,450.08,336.78Z" transform="translate(0 -0.18)"/>
  <path class="cls-3" d="M365.87,406.62s9.54,10.34,14,12.09a12.06,12.06,0,0,1,6.2,6.37s5.25,3,8.12,3.5,7.16,4.77,7.16,4.77,10.66,3,10.66,5.25,4.3,5.26,4.3,5.26l-1.07-61.1s-17.71,2.22-22.8,9.7S365.87,406.62,365.87,406.62Z" transform="translate(0 -0.18)"/>
  <path class="cls-3" d="M386.67,412.39c.8-.48,22.52-28.46,22.52-28.46l4-.82S402.88,398.55,403,399.82,386.67,412.39,386.67,412.39Z" transform="translate(0 -0.18)"/>
  <path class="cls-3" d="M395.78,421.58s5.73-13.21,7.32-15.44S413.25,389,413.25,389a10.22,10.22,0,0,1,0,3.82C412.8,394.21,395.78,421.58,395.78,421.58Z" transform="translate(0 -0.18)"/>
  <path class="cls-3" d="M434.12,323.09s-12.73,23.23-11.61,24.35S434.12,323.09,434.12,323.09Z" transform="translate(0 -0.18)"/>
  <path class="cls-3" d="M438.58,332.32s-10.5,15.35-9.55,15.15S438.58,332.32,438.58,332.32Z" transform="translate(0 -0.18)"/>
  <path class="cls-6" d="M429,244.66l-20,1.43s0-.65-.07-1.77c-.28-6.62-1.29-29.7-1.83-32.28-.64-3-1.28-8.43-1.28-8.43S395,202,395.14,200.27s-13.84-20.37-3.18-20c8.32.25,22.54,10.08,28.39,14.39a5.34,5.34,0,0,1,2.13,4.94,22,22,0,0,0-.18,3.8,53.3,53.3,0,0,1-.21,7.89c-.21,2.27-.12,4.87.9,6.69,1.48,2.65,3.67,13.64,5,20.67C428.61,242.12,429,244.66,429,244.66Z" transform="translate(0 -0.18)"/>
  <path class="cls-3" d="M437.15,260.09l-.38,1.09c-4.35-4.31-31.6-7.06-31.6-7.06-2.39-2.78-.25-4,2.3-7.4,1.49-2,10.42-4.84,17.59-6.85h7.47S437.78,258.18,437.15,260.09Z" transform="translate(0 -0.18)"/>
  <path class="cls-3" d="M429,244.66l-20,1.43s0-.65-.07-1.77c3.15-1.85,10.24-4.07,16.15-5.72H428C428.61,242.12,429,244.66,429,244.66Z" transform="translate(0 -0.18)"/>
  <path class="cls-1" d="M437.15,259.45c-.13.37-.26.74-.38,1.1-4.35-4.32-31.6-7.07-31.6-7.07-2.39-2.78-.25-4,2.3-7.39,1.49-2,10.42-4.85,17.59-6.86h7.47S437.78,257.54,437.15,259.45Z" transform="translate(0 -0.18)"/>
  <path class="cls-3" d="M454.49,417s-2.23,42.8,0,44.87S454.49,417,454.49,417Z" transform="translate(0 -0.18)"/>
  <path class="cls-3" d="M470.24,434.94s-.8,47.1,0,47.57S470.24,434.94,470.24,434.94Z" transform="translate(0 -0.18)"/>
  <path class="cls-3" d="M488.67,440.51s3,32.46,5.73,33.73S488.67,440.51,488.67,440.51Z" transform="translate(0 -0.18)"/>
  <path class="cls-3" d="M536,479.19a6.55,6.55,0,0,1-2.55-1c-2.7-1.75-5.73-20.53-9.7-23.07s-18.3-27.53-18.3-27.53-5.57-10-7.8-12.57-1.11-14-1.11-14-5.93-6.83-8.44-12.57a11.41,11.41,0,0,1-1.1-4.09s.85-2.51,4.24,0,11.66,13.16,13.89,13.95,4.93,2.39,8.28,6.21,4.93,4.46,4.93,4.46,3.82,9.7,3.66,12.09,1.27,18.61,3,20.05,4.61,14.47,4.61,14.47S534.84,474,536,479.19Z" transform="translate(0 -0.18)"/>
  <path class="cls-3" d="M523.72,419.65V419a6.37,6.37,0,0,1,.17,1.44A2.94,2.94,0,0,1,523.72,419.65Z" transform="translate(0 -0.18)"/>
  <path class="cls-3" d="M536.83,474.32c-.65,1.13-1.26,2.16-1.78,3-2.63-2.71-5.59-20.39-9.44-22.85a18.2,18.2,0,0,1-3.5-3.93v-21a26.17,26.17,0,0,0,2-4.21c.47,5.68,1.55,14.1,2.79,15.12,1.75,1.43,4.61,14.48,4.61,14.48S534.93,467,536.83,474.32Z" transform="translate(0 -0.18)"/>
  <path class="cls-1" d="M536.59,478.55a6.25,6.25,0,0,1-2.55-1c-2.71-1.75-5.73-20.52-9.71-23.07S506,427,506,427s-5.57-10-7.8-12.57-1.11-14-1.11-14-5.93-6.84-8.44-12.57a11.51,11.51,0,0,1-1.1-4.1s.84-2.5,4.24,0,11.66,13.16,13.89,13.95,4.93,2.4,8.27,6.22,4.93,4.45,4.93,4.45,3.82,9.71,3.66,12.09,1.28,18.62,3,20.05S530.19,455,530.19,455,535.48,473.32,536.59,478.55Z" transform="translate(0 -0.18)"/>
  <circle class="cls-7" cx="504.13" cy="416.79" r="2.15"/>
  <circle class="cls-7" cx="518.25" cy="436.12" r="2.15"/>
  <path class="cls-3" d="M534.67,430.6s-10.35-4.73-8.76-2.18S534.67,430.6,534.67,430.6Z" transform="translate(0 -0.18)"/>
  <path class="cls-3" d="M534.67,437.49s-10.51-2.86-8.28-1.19S534.67,437.49,534.67,437.49Z" transform="translate(0 -0.18)"/>
  <path class="cls-3" d="M532.93,445.05s-7.16-5.18-5.41-3.27S532.93,445.05,532.93,445.05Z" transform="translate(0 -0.18)"/>
  <path class="cls-3" d="M540.4,450.53s-7.3,14.36-3.81,15.3S540.4,450.53,540.4,450.53Z" transform="translate(0 -0.18)"/>
  <path class="cls-3" d="M436.46,686.16s-16.76,15.91-11.88,15.7S436.46,686.16,436.46,686.16Z" transform="translate(0 -0.18)"/>
  <path class="cls-3" d="M412.91,708.23c.85,0,17.82-1.7,13.36-2.55S412.91,708.23,412.91,708.23Z" transform="translate(0 -0.18)"/>
  <path class="cls-3" d="M495.43,683.62s18,.63,17.61,2.54S495.43,683.62,495.43,683.62Z" transform="translate(0 -0.18)"/>
  <path class="cls-3" d="M492.46,690.83s10.39,7.85,12.73,5.3S492.46,690.83,492.46,690.83Z" transform="translate(0 -0.18)"/>
  <path class="cls-6" d="M442.67,578.39A5.26,5.26,0,0,1,442,580a1.75,1.75,0,0,1-.46.48c-2.13,1.48-7.64,4.24-8.49,4-.39-.1-1.91-.56-3.58-1-2-.57-4.11-1.18-4.92-1.29s-1.28-1.4-1.4-2.66,0-2.24.53-2.43a1.25,1.25,0,0,0,.45-.66,9.18,9.18,0,0,0,.28-.89l.08-.3c.28-1.16.51-2.63.67-3.84.09-.65.15-1.23.2-1.62v-.46h0v-.08l1.4-.07h1.33c3.6-.15,9.78-.31,12.13.12a3.41,3.41,0,0,1,2.21,2.54,11.67,11.67,0,0,1,.5,2.87A12.66,12.66,0,0,1,442.67,578.39Z" transform="translate(0 -0.18)"/>
  <path class="cls-6" d="M515.32,585.78V586c0,2.17-.15,3.81-.15,4.08,0,.84-22.06,6.79-27.57,6.36-3.62-.28-.93-2.76,1.09-5.32a8.34,8.34,0,0,0,1.6-2.71,2,2,0,0,0,0-1.09c-.11-.4-.21-.76-.28-1.09h0c-.52-2.29-.26-3,.28-3.56a4.21,4.21,0,0,0,.73-1.37,5.39,5.39,0,0,0,.31-1.42,4.31,4.31,0,0,0-.81-3.07c-1.7-2.26,6.37-3.47,6.37-3.47h15.33c1.5,0,2.3,2.12,2.7,4.86v.09c.11.8.2,1.65.25,2.52s.09,1.64.1,2.44S515.32,585,515.32,585.78Z" transform="translate(0 -0.18)"/>
  <path class="cls-6" d="M448.33,649.89s-17,4-15.27,3c.65-.41.8-1.79.74-3.35a22.5,22.5,0,0,0-.2-2.31c-.22-1.77-.54-3.25-.54-3.25s8.91-1.91,12.09-1.06a3.78,3.78,0,0,1,2.39,2.56,3.62,3.62,0,0,1,.13.35A14.73,14.73,0,0,1,448.33,649.89Z" transform="translate(0 -0.18)"/>
  <path class="cls-3" d="M461.23,313.71c2.33-.79,4.38-2.21,6.62-3.23s4.85-1.64,7.12-.7a11.34,11.34,0,0,1,3.12,2.19c2,1.77,4,3.54,5.88,5.43a34.64,34.64,0,0,0,6.13,5.47c5.25,3.21,11.92,2.49,18,1.53a11,11,0,0,0,3.55-1c2.67-1.46,3.7-5,3.07-7.95s-2.54-5.52-4.57-7.79a64,64,0,0,0-20.87-15.44c-8.42-3.87-18.44-5.8-26.84-1.91a29,29,0,0,0-7,4.78c-2.92,2.6-10.47,9.21-8.8,13.68C448.48,313.8,456.88,315.17,461.23,313.71Z" transform="translate(0 -0.18)"/>
  <path class="cls-7" d="M461.23,313.07c2.33-.78,4.38-2.21,6.62-3.23s4.85-1.63,7.12-.7a12,12,0,0,1,3.12,2.19c2,1.77,4,3.54,5.88,5.43a34.29,34.29,0,0,0,6.13,5.47c5.25,3.21,11.92,2.49,18,1.53a11,11,0,0,0,3.55-1c2.67-1.45,3.7-5,3.07-7.95s-2.54-5.52-4.57-7.79a63.85,63.85,0,0,0-20.87-15.43c-8.42-3.87-18.44-5.8-26.84-1.92a29.62,29.62,0,0,0-7,4.78c-2.92,2.6-10.47,9.22-8.8,13.69C448.48,313.17,456.88,314.54,461.23,313.07Z" transform="translate(0 -0.18)"/>
  <path class="cls-3" d="M511.67,321.44a10.88,10.88,0,0,1-3.54,1c-6.08,1-12.74,1.67-18-1.53a34.41,34.41,0,0,1-6.16-5.52c-1.88-1.9-3.89-3.66-5.88-5.43a11.75,11.75,0,0,0-3.12-2.2c-2.28-.93-4.89-.32-7.13.71s-4.28,2.44-6.61,3.23c-4.35,1.46-12.75.09-14.63-4.92a3.75,3.75,0,0,1-.19-.75,4.12,4.12,0,0,0,.19,2c1.88,5,10.28,6.38,14.63,4.92,2.33-.79,4.38-2.21,6.61-3.23s4.85-1.64,7.13-.7a11.34,11.34,0,0,1,3.12,2.19c2,1.77,4,3.54,5.88,5.43a34.64,34.64,0,0,0,6.13,5.47c5.25,3.21,11.91,2.49,18,1.53a11,11,0,0,0,3.54-1c2.36-1.28,3.43-4.16,3.23-6.86A6.71,6.71,0,0,1,511.67,321.44Z" transform="translate(0 -0.18)"/>
  <path class="cls-3" d="M425.53,569.89a42.36,42.36,0,0,1-1.11,5.69,46.87,46.87,0,0,0,1-5.76Z" transform="translate(0 -0.18)"/>
  <path class="cls-3" d="M441.55,580.52c-2.13,1.48-7.64,4.24-8.49,4s-7-2.12-8.5-2.33-1.89-4.67-.87-5.09a1.25,1.25,0,0,0,.45-.66,7.53,7.53,0,0,1-.36.89c-1.16,2.5,1,4.67,1,4.67l8.82,2.28,8.31-4.54c2-2.75-.24-9.09-1.38-10.12s-14.77,0-14.77,0l-.3-.29h0v-.08l1.4-.07h1.33c3.6-.15,9.78-.31,12.13.12C443.67,569.91,443.67,579,441.55,580.52Z" transform="translate(0 -0.18)"/>
  <path class="cls-3" d="M512.25,573.31H496.92s-8.07,1.21-6.37,3.47.38,5.22-.23,5.86-.87,1.49,0,4.67-8.24,8.7-2.73,9.12,27.57-5.52,27.57-6.36S516.35,573.31,512.25,573.31Zm2.07,16.46c0,.8-20.79,6.39-26,6s3.39-5.59,2.57-8.59-.58-3.8,0-4.4,1.82-3.4.22-5.53,6-3.27,6-3.27h14.45C515.44,574,514.32,589,514.32,589.77Z" transform="translate(0 -0.18)"/>
  <path class="cls-3" d="M445.15,642.89C442,642,433.06,644,433.06,644s1.7,7.85,0,8.91,15.28-3,15.28-3S448.34,643.74,445.15,642.89Zm-11.83,9.8c1.64-1,0-8.61,0-8.61s8.61-1.84,11.68-1,3.07,6.76,3.07,6.76-16.4,3.87-14.75,2.85Z" transform="translate(0 -0.18)"/>
  <path class="cls-3" d="M515.31,583.22l-25.27,3h0l25.17-5.42C515.26,581.59,515.3,582.39,515.31,583.22Z" transform="translate(0 -0.18)"/>
  <polygon class="cls-7" points="489.81 585.44 516.06 579.79 516.62 582.25 489.81 585.44"/>
  <path class="cls-3" d="M515.32,585.78V586l-26.65,5.12a8.34,8.34,0,0,0,1.6-2.71Z" transform="translate(0 -0.18)"/>
  <polygon class="cls-7" points="485.81 588.06 517.81 584.7 486.66 590.69 485.81 588.06"/>
  <path class="cls-3" d="M515,578.17l-23.59,1.68a5.3,5.3,0,0,1-.31,1.42l23.91-3Z" transform="translate(0 -0.18)"/>
  <polygon class="cls-7" points="489.81 579.15 516.62 577.24 489.41 580.66 489.81 579.15"/>
  <path class="cls-3" d="M443,574.68l-18.49.6c.28-1.16.51-2.63.67-3.84l17.32.37A11.67,11.67,0,0,1,443,574.68Z" transform="translate(0 -0.18)"/>
  <polygon class="cls-7" points="423.12 570.58 448.34 571.11 445.26 573.8 423.12 574.51 423.12 570.58"/>
  <path class="cls-3" d="M442.67,578.39A5.26,5.26,0,0,1,442,580l-12.53,3.47c-2-.57-4.11-1.18-4.92-1.29s-1.28-1.4-1.4-2.66Z" transform="translate(0 -0.18)"/>
  <polygon class="cls-7" points="419.81 578.95 449.19 577.24 422.25 584.7 419.81 578.95"/>
  <path class="cls-3" d="M447.67,645.8l-13.87,3.71a22.5,22.5,0,0,0-.2-2.31c3.87-.52,10.32-1.31,13.94-1.75A3.62,3.62,0,0,1,447.67,645.8Z" transform="translate(0 -0.18)"/>
  <path class="cls-7" d="M430.41,647c.53-.21,19.84-2.54,19.84-2.54l-19.84,5.3Z" transform="translate(0 -0.18)"/>
  <circle class="cls-1" cx="744.05" cy="95.13" r="21.63"/>
  <circle class="cls-1" cx="840.06" cy="148.12" r="17.01"/>
  <circle class="cls-2" cx="744.05" cy="95.13" r="21.63"/>
  <circle class="cls-2" cx="840.06" cy="148.12" r="17.01"/>
  <circle class="cls-1" cx="131.6" cy="148.12" r="54.59"/>
  <circle class="cls-2" cx="131.6" cy="148.12" r="54.59"/>
  <circle class="cls-1" cx="835.04" cy="72.16" r="6"/>
  <circle class="cls-2" cx="835.04" cy="72.16" r="6"/>
  <path class="cls-1" d="M318.67,762.39s6.22,8.13-2.87,20.41-16.58,22.64-13.55,30.3c0,0,13.71-22.8,24.87-23.12S330.92,776.11,318.67,762.39Z" transform="translate(0 -0.18)"/>
  <path class="cls-3" d="M318.67,762.39a10.13,10.13,0,0,1,1.27,2.55c10.89,12.8,16.69,24.74,6.23,25-9.75.27-21.45,17.71-24.25,22.11a9,9,0,0,0,.33,1s13.71-22.8,24.87-23.12S330.92,776.11,318.67,762.39Z" transform="translate(0 -0.18)"/>
  <path class="cls-10" d="M330.2,772.77c0,2.86-.32,5.18-.72,5.18s-.71-2.32-.71-5.18.4-1.52.79-1.52S330.2,769.9,330.2,772.77Z" transform="translate(0 -0.18)"/>
  <path class="cls-10" d="M334.17,776.18c-2.51,1.37-4.71,2.2-4.89,1.85s1.69-1.74,4.2-3.11,1.52-.37,1.71,0S336.67,774.81,334.17,776.18Z" transform="translate(0 -0.18)"/>
  <path class="cls-1" d="M285.8,762.39s-6.22,8.13,2.87,20.41,16.58,22.64,13.55,30.3c0,0-13.71-22.8-24.87-23.12S273.52,776.11,285.8,762.39Z" transform="translate(0 -0.18)"/>
  <path class="cls-3" d="M285.8,762.39a10.13,10.13,0,0,0-1.27,2.55c-10.89,12.8-16.69,24.74-6.23,25,9.75.27,21.45,17.71,24.25,22.11a9,9,0,0,1-.33,1s-13.71-22.8-24.87-23.12S273.52,776.11,285.8,762.39Z" transform="translate(0 -0.18)"/>
  <path class="cls-10" d="M274.24,772.77c0,2.86.32,5.18.72,5.18s.71-2.32.71-5.18-.4-1.52-.79-1.52S274.24,769.9,274.24,772.77Z" transform="translate(0 -0.18)"/>
  <path class="cls-10" d="M270.27,776.18c2.51,1.37,4.7,2.2,4.89,1.85s-1.69-1.74-4.2-3.11-1.52-.37-1.71,0S267.76,774.81,270.27,776.18Z" transform="translate(0 -0.18)"/>
  <path class="cls-11" d="M276.22,812s17.38-.53,22.62-4.27,26.75-8.18,28.05-2.2,26.12,29.76,6.49,29.92-45.6-3.06-50.83-6.24S276.22,812,276.22,812Z" transform="translate(0 -0.18)"/>
  <path class="cls-12" d="M333.73,833.39c-19.62.16-45.6-3.06-50.83-6.24-4-2.43-5.57-11.14-6.1-15.15h-.58s1.1,14,6.33,17.21,31.21,6.4,50.83,6.24c5.67,0,7.63-2.06,7.52-5.05C340.11,832.25,338,833.39,333.73,833.39Z" transform="translate(0 -0.18)"/>
  <path class="cls-13" d="M672.21,824.58s-11.11-37.73,2.08-65.5a59.6,59.6,0,0,0,4.82-37.39,99.64,99.64,0,0,0-5.29-17.55" transform="translate(0 -0.18)"/>
  <path class="cls-1" d="M682,686.59c0,4.63-8.37,18-8.37,18s-8.38-13.41-8.38-18a8.38,8.38,0,0,1,16.75,0Z" transform="translate(0 -0.18)"/>
  <path class="cls-1" d="M695.87,712.21c-2.51,3.88-16.83,10.58-16.83,10.58s.26-15.8,2.77-19.68a8.37,8.37,0,0,1,14.06,9.1Z" transform="translate(0 -0.18)"/>
  <path class="cls-1" d="M695.26,756c-4.12,2.08-19.87.64-19.87.64s8.21-13.51,12.33-15.6a8.39,8.39,0,0,1,7.54,15h0Z" transform="translate(0 -0.18)"/>
  <path class="cls-1" d="M687.35,789c-3.72,2.75-19.48,4-19.48,4s5.8-14.7,9.52-17.45a8.38,8.38,0,1,1,10,13.46Z" transform="translate(0 -0.18)"/>
  <path class="cls-1" d="M661.46,723.69c3.32,3.22,18.77,6.56,18.77,6.56s-3.79-15.35-7.1-18.57a8.37,8.37,0,1,0-11.81,11.86l.14.14Z" transform="translate(0 -0.18)"/>
  <path class="cls-1" d="M652.67,762.39c4.13,2.08,19.87.64,19.87.64s-8.2-13.51-12.33-15.6a8.38,8.38,0,0,0-7.54,15Z" transform="translate(0 -0.18)"/>
  <path class="cls-1" d="M649.34,801.23c3.71,2.75,19.47,4,19.47,4s-5.8-14.71-9.52-17.46a8.39,8.39,0,1,0-10,13.47h.05Z" transform="translate(0 -0.18)"/>
  <path class="cls-1" d="M682,686.59c0,4.63-8.37,18-8.37,18s-8.38-13.41-8.38-18a8.38,8.38,0,0,1,16.75,0Z" transform="translate(0 -0.18)"/>
  <path class="cls-1" d="M695.87,712.21c-2.51,3.88-16.83,10.58-16.83,10.58s.26-15.8,2.77-19.68a8.37,8.37,0,0,1,14.06,9.1Z" transform="translate(0 -0.18)"/>
  <path class="cls-1" d="M695.26,756c-4.12,2.08-19.87.64-19.87.64s8.21-13.51,12.33-15.6a8.39,8.39,0,0,1,7.54,15h0Z" transform="translate(0 -0.18)"/>
  <path class="cls-1" d="M687.35,789c-3.72,2.75-19.48,4-19.48,4s5.8-14.7,9.52-17.45a8.38,8.38,0,1,1,10,13.46Z" transform="translate(0 -0.18)"/>
  <path class="cls-1" d="M661.46,723.69c3.32,3.22,18.77,6.56,18.77,6.56s-3.79-15.35-7.1-18.57a8.37,8.37,0,1,0-11.81,11.86l.14.14Z" transform="translate(0 -0.18)"/>
  <path class="cls-1" d="M652.67,762.39c4.13,2.08,19.87.64,19.87.64s-8.2-13.51-12.33-15.6a8.38,8.38,0,0,0-7.54,15Z" transform="translate(0 -0.18)"/>
  <path class="cls-1" d="M649.34,801.23c3.71,2.75,19.47,4,19.47,4s-5.8-14.71-9.52-17.46a8.39,8.39,0,1,0-10,13.47h.05Z" transform="translate(0 -0.18)"/>
  <path class="cls-11" d="M645.94,822.2s13.54-2.69,17.14-6.27,19.85-9.85,21.66-5.37,24.35,19.7,9,22.39-36.09,3.58-40.6,1.79S645.94,822.2,645.94,822.2Z" transform="translate(0 -0.18)"/>
  <path class="cls-12" d="M693.76,831.28c-15.34,2.69-36.09,3.59-40.6,1.8-3.43-1.37-5.82-7.92-6.77-11l-.45.09s2.71,10.75,7.22,12.54,25.26.9,40.6-1.79c4.42-.78,5.69-2.6,5.21-4.9C698.59,829.55,697.05,830.71,693.76,831.28Z" transform="translate(0 -0.18)"/>
  <g>
    <path class="cls-14" id="bigLove" d="M590.15,73v1.79a11.56,11.56,0,0,1-.07,1.54v.32c0,.43-.05.86-.09,1.28v.57a11.54,11.54,0,0,1-.1,1.17c0,.39-.07.62-.1.94-.09.77-.19,1.54-.31,2.31-.07.51-.15,1-.23,1.52v.11c0,.25-.09.5-.14.76s-.05.29-.08.44a1.1,1.1,0,0,1-.08.4,5.09,5.09,0,0,0-.16.8c-.06.26-.11.53-.17.8s-.08.39-.13.59-.15.67-.23,1v.06l-.18.69-.21.84c-.09.34-.19.68-.28,1a.35.35,0,0,1-.08.27l-.3,1c-.32,1.06-.67,2.12-1,3.17l-.36,1-.21.55a71,71,0,0,1-9.75,17.52c-.24.34-.5.67-.75,1a74.38,74.38,0,0,1-6.15,7L466.74,225.65,364.5,123.39a72.8,72.8,0,0,1-8-9.52,69,69,0,0,1-4.16-6.64,72.31,72.31,0,0,1-8.74-41.11c.11-1.31.26-2.62.44-3.92.32-2.3.76-4.59,1.3-6.86.11-.46.23-.92.35-1.37l.18-.69c.06-.22.07-.28.11-.42l.3-1h0c.24-.79.48-1.58.74-2.37l.37-1.08c.54-1.53,1.12-3,1.76-4.54l.39-.89c.2-.45.4-.9.61-1.35.34-.72.69-1.44,1-2.15l.09-.16h0c.16-.33.33-.64.5-1l.59-1.09c.25-.45.51-.9.77-1.35.12-.21.25-.42.37-.64s.15-.23.22-.36v-.07h0c.16-.26.32-.52.49-.78l.56-.88c.42-.65.85-1.3,1.29-1.94l.47-.67.59-.81c.2-.29.41-.57.63-.85l.76-1c.24-.29.47-.59.7-.88l.25-.3.51-.62c.26-.32.53-.63.8-.94l.35-.41.06-.07.61-.68.68-.75c.64-.69,1.3-1.38,2-2l.79-.78,1.23-1.16c.27-.25.54-.5.82-.74s.64-.58,1-.86l.64-.54c.21-.19.43-.37.64-.54a16.17,16.17,0,0,1,1.3-1l.66-.52c1.1-.84,2.21-1.65,3.35-2.43l.68-.46.69-.45.65-.42,1-.6.48-.29.7-.41C380,9.48,381,9,381.9,8.45l.57-.3.88-.45.73-.36.73-.34.73-.35.74-.33L387,6c1-.43,2-.83,3-1.21l.65-.4.8-.29.71-.25.6-.2,1.38-.44.71-.22.57-.16.56-.16c.33-.1.67-.19,1-.27l1.32-.34c1.36-.33,2.73-.63,4.1-.88l.56-.1.78-.13.8-.13,1-.15.59-.08c1.32-.17,2.64-.31,4-.41h9.29a5.77,5.77,0,0,1,1,.06h.68c1.06.08,2.12.19,3.17.31l1.42.19,1,.14.79.13.79.13.52.09q2.06.38,4.08.87l1.66.43.46.13.71.2c.46.13.92.26,1.37.41l.6.19c1,.31,2,.64,3,1l.68.25.89.34,1.34.54,1.53.67.6.26.82.39.73.34.72.36.91.46.72.38c.56.3,1.12.6,1.67.92l.7.4c.82.47,1.62,1,2.42,1.47l.65.42.69.45.68.46h0l.45.31c1,.67,1.91,1.37,2.85,2.09l.66.52c.43.34.87.69,1.3,1,.21.17.43.35.64.54l.64.54,1,.86c.28.24.55.49.82.74L466,20.39l.79.78.8-.78,1.22-1.16c.27-.25.54-.5.82-.74s.64-.58,1-.86l.64-.54c.21-.19.43-.37.64-.54a16.17,16.17,0,0,1,1.3-1l.66-.52c1.1-.84,2.21-1.65,3.35-2.43l.68-.46.69-.45.65-.42.95-.6.48-.29.7-.41c.94-.55,1.88-1.08,2.83-1.58l.57-.3.88-.45.73-.36.73-.34.73-.35.74-.33.74-.32c1-.43,2-.83,3-1.21.24-.09.49-.19.74-.27l.79-.29.72-.25.59-.2,1.38-.44.71-.22.57-.16.56-.16c.33-.1.66-.19,1-.27l1.31-.34c1.36-.33,2.73-.63,4.1-.88l.56-.1.78-.13.8-.13,1-.15.59-.08c1.32-.17,2.64-.31,4-.41h9.2a5.77,5.77,0,0,1,1,.06h.68c1.06.08,2.12.19,3.17.31l1.42.19,1,.14.79.13.79.13.52.09q2.06.38,4.08.87l1.66.43.46.13.71.2c.46.13.92.26,1.38.41l.59.19c1,.31,2,.65,3,1l.67.25.89.34,1.34.54,1.53.67.6.26.82.39.73.34.72.36.91.46.73.38c.55.3,1.11.6,1.66.92l.7.4c.82.47,1.63,1,2.42,1.47l.65.42.69.45.68.46h.05l.45.31c1,.67,1.91,1.37,2.85,2.09l.66.52c.43.34.87.69,1.3,1,.21.17.43.35.64.54l.64.54.83.74c.28.25.56.5.83.76l.47.43h0l.07.07c.27.24.53.5.8.75l.36.35.43.43.79.81c.4.41.8.83,1.19,1.26.23.24.46.49.68.74.38.42.75.84,1.12,1.27L574,26.66c1.35,1.66,2.61,3.36,3.8,5.1l.48.73c.18.26.34.52.51.78l.43.67c.24.39.48.77.71,1.16l.63,1.08c.13.22.26.44.38.66l.29.52.29.52.42.79.41.79q1.41,2.76,2.56,5.63l.33.81c.31.79.6,1.57.88,2.37l.25.72c.11.34.23.68.33,1s.2.61.29.92l.18.58c.09.28.17.56.25.84s.19.69.29,1c.15.56.29,1.12.43,1.69l.21.88c.1.42.19.84.28,1.26a2.59,2.59,0,0,0,.11.54c0,.18.1.48.14.72s.08.38.11.57l.09.48a.9.9,0,0,0,.08.45c.08.15,0,.29.07.44l.15.9a5.58,5.58,0,0,0,.13.9c0,.3.09.67.13,1s.08.64.11,1l.06.55c0,.33.07.66.1,1v.49c0,.34.06.68.08,1a.09.09,0,0,1,0,.07v1.29a7.81,7.81,0,0,0,0,1.08h0v1.11A12.82,12.82,0,0,1,590.15,73Z" transform="translate(0 -0.18)"/>
    <path class="cls-14" d="M757.48,295.8v2.29l-.09.71a3.65,3.65,0,0,1-.07.46h0V300a2,2,0,0,1-.05.24v.18a.57.57,0,0,1-.07.31h0l-.06.21-.06.25-.09.31v.09a2.07,2.07,0,0,1-.1.31c-.09.33-.2.65-.31,1a1.15,1.15,0,0,1-.11.31.87.87,0,0,1-.07.17,21.59,21.59,0,0,1-2.92,5.33l-.23.31a22.37,22.37,0,0,1-1.88,2.13l-31.55,31.24-31.21-31.21a22.51,22.51,0,0,1-2.45-2.9,21.8,21.8,0,0,1-1.27-2,22.11,22.11,0,0,1-2.67-12.55,8.17,8.17,0,0,1,.14-1.2c.1-.7.23-1.4.4-2.09a1.6,1.6,0,0,1,.1-.42l.06-.21v-.13l.09-.31h0c.07-.24.15-.48.23-.72s.07-.22.11-.33q.24-.7.54-1.38l.12-.28.18-.41c.11-.22.21-.44.33-.65v-.05h0l.16-.29.18-.33c.07-.14.15-.28.23-.42l.12-.19.06-.11h0c0-.08.09-.16.14-.24s.12-.18.17-.27.26-.4.4-.59l.14-.21.18-.25.19-.25.24-.31.21-.27.08-.09.15-.19.25-.29.1-.12h0l.19-.21c.06-.08.14-.15.21-.23s.39-.42.6-.63l.24-.23.37-.36.25-.23.3-.26.19-.16.2-.17.39-.32.21-.16,1-.74.21-.14.2-.14.2-.12.3-.19.14-.08.22-.13c.28-.17.57-.33.86-.48l.17-.09.27-.14.22-.11.23-.11.22-.1.22-.1.23-.1.91-.37.23-.08.24-.09.22-.08.18-.06.42-.13.22-.07.17,0,.17-.05.31-.08.4-.1c.41-.11.83-.2,1.25-.27h1.14c.4-.05.8-.1,1.21-.13h3.35l1,.1.44.06h.93c.42.07.83.16,1.25.26l.5.13H710l.22.06.42.13.18.05c.31.1.61.2.91.32l.21.07.27.11.41.16.46.2.19.09.25.11.22.11.22.11.28.14.22.12.51.27.21.13c.25.14.5.29.74.45l.2.12.21.14.21.14h0l.14.1.87.63a1.56,1.56,0,0,0,.2.16l.4.32.19.17.2.16.29.26.25.23.37.36a2.73,2.73,0,0,1,.25.23,1.75,1.75,0,0,1,.24-.23l.37-.36.25-.23.29-.26.2-.16.19-.17.4-.32a1.56,1.56,0,0,0,.2-.16l1-.74.21-.14.21-.14.2-.12.29-.19.15-.08.21-.13.87-.48.17-.09.27-.14.22-.11.22-.11.23-.1.22-.1.23-.1.91-.37.23-.08.24-.09.22-.08.18-.06.42-.13.22-.07.17-.05.17-.05.3-.08.4-.1q.63-.17,1.26-.27h1.13c.41-.05.81-.1,1.21-.13H737l1,.1a1,1,0,0,1,.43.06h.94c.41.07.83.16,1.24.26l.51.13h.14l.22.06.42.13.18.05c.3.1.61.2.91.32l.2.07.27.11.41.16.47.2.18.09.25.11.23.11.22.11.27.14.23.12.5.27.22.13c.25.14.49.29.74.45l.2.12.2.14.21.14h0l.13.1q.45.3.87.63l.21.16.39.32.2.17.19.16.26.23.25.23.14.13h0l.24.23.11.1.13.13.24.25.37.38c.07.08.14.15.2.23l.35.39.36.43a16.61,16.61,0,0,1,1.16,1.56l.15.22.15.24.13.2.22.36.19.32.12.21.09.16.08.16a1.71,1.71,0,0,1,.13.23l.12.25c.29.56.55,1.13.79,1.71,0,.09.07.17.1.25l.27.72a.3.3,0,0,0,.07.23c.07.08.07.2.11.31s.06.19.08.28l.06.17a1.25,1.25,0,0,0,.07.26l.09.32c0,.17.09.34.13.51a2.68,2.68,0,0,1,.07.27,2.7,2.7,0,0,0,.08.39.37.37,0,0,1,0,.16v2.9h0v.19a.67.67,0,0,0,0,.2v.33h0v.34C756.88,295.23,757.49,295.58,757.48,295.8Z" transform="translate(0 -0.18)"/>
    <path class="cls-14" d="M612.81,254.39v2.32a1.9,1.9,0,0,1-.09.71c-.09.23,0,.31-.07.46h0v.73l-.06.24V259c0,.1,0,.21-.07.31h0v.21a2.5,2.5,0,0,0-.07.26l-.09.31v.08l-.09.32c-.1.32-.2.65-.32,1a.91.91,0,0,1-.11.3l-.06.17a21.87,21.87,0,0,1-2.93,5.34l-.23.3a22.38,22.38,0,0,1-1.87,2.14L575.54,301l-31.21-31.2A21.84,21.84,0,0,1,538,252.32a9.57,9.57,0,0,1,.13-1.2c.1-.71.23-1.4.4-2.1a1.46,1.46,0,0,1,.11-.41,1.74,1.74,0,0,1,0-.22v-.12l.09-.32h0c.07-.24.14-.48.22-.72l.12-.33c.16-.47.34-.93.53-1.39l.12-.27c.06-.14.12-.28.19-.41s.21-.44.32-.66v0h0l.15-.3.18-.33.24-.41a1.28,1.28,0,0,1,.11-.2l.07-.11h0l.15-.24c0-.09.11-.18.17-.27l.39-.59.15-.2.18-.25.19-.26.23-.31a2.75,2.75,0,0,1,.22-.26.61.61,0,0,1,.07-.1l.16-.18.24-.29.11-.13h0l.18-.21.21-.23.6-.62.24-.24.38-.35a2.73,2.73,0,0,1,.25-.23l.29-.26.2-.17.19-.16.4-.32.2-.16c.33-.26.68-.51,1-.74l.21-.14.21-.14.2-.13.29-.18.14-.09.22-.13c.28-.16.57-.33.86-.48l.18-.09,0-.23.22-.11.22-.1.22-.11.23-.1.22-.1.92-.37.22-.08.24-.09.22-.07.19-.06.42-.14.21-.06.18-.05.17,0,.3-.09.4-.1,1.25-.27h1.14c.4-.05.81-.09,1.21-.12h3.35a9,9,0,0,1,1,.09l.43.06h.93c.42.08.84.17,1.25.27l.51.13h.14l.21.06.42.12.19.06.9.31.21.08.27.1.41.17.47.2.18.08.25.12.22.1.22.11.28.14.22.12.51.28.22.12.73.45.2.13.21.14.21.14h0l.14.09c.3.21.59.42.87.64a1.56,1.56,0,0,1,.2.16c.14.1.27.21.4.32l.2.16.19.17.29.26a2.73,2.73,0,0,1,.25.23l.38.35.24.24.24-.24.37-.35.25-.23.3-.26.19-.17.2-.16c.13-.11.26-.22.4-.32a1.56,1.56,0,0,1,.2-.16c.33-.26.67-.51,1-.74l.21-.14.21-.14.19-.13.3-.18.14-.09.22-.13c.28-.16.57-.33.86-.48l.17-.09.27-.14.23-.11.22-.1.22-.11.23-.1.22-.1.91-.37.23-.08.24-.09.22-.07.18-.06.42-.14.22-.06.17,0,.17-.05.31-.09.4-.1c.42-.1.83-.19,1.25-.27h1.14c.4,0,.8-.09,1.21-.12h3.35l1,.09.43.06h.93c.42.08.83.17,1.25.27l.51.13h.13a.9.9,0,0,1,.22.06l.42.12.18.06.91.31.21.08.27.1.41.17.47.2.18.08.25.12.22.1.22.11.28.14.22.12.51.28.21.12.74.45.2.13.21.14.21.14h0l.14.09.87.64.2.16.4.32.19.16.2.17.25.22.26.23.14.14h0l.25.23.11.11.13.13.24.24.36.39.21.23c.12.12.23.25.34.38l.36.43a18,18,0,0,1,1.16,1.56l.15.22.15.24a2.39,2.39,0,0,1,.13.21c.08.11.15.23.22.35l.19.33.12.2.09.16.09.16.12.24c0,.08.09.16.13.24.29.56.55,1.14.78,1.72a1.86,1.86,0,0,1,.1.25q.15.36.27.72a.65.65,0,0,0,.08.22l.1.31.09.28a.25.25,0,0,0,0,.18c0,.06,0,.17.08.25l.09.32a2.47,2.47,0,0,0,.13.52l.06.27.09.38v.17a.81.81,0,0,1,0,.22V251a.63.63,0,0,0,0,.3v1.23h0v.73h0v.33C612.81,253.93,612.81,254.15,612.81,254.39Z" transform="translate(0 -0.18)"/>
    <path class="cls-14" d="M317.76,276.31v2.29a4.31,4.31,0,0,1-.09.71c0,.24,0,.31-.07.46h0a.89.89,0,0,1,0,.23v.51l-.06.24v.18a.51.51,0,0,1-.07.31h0a1.6,1.6,0,0,0-.05.21,2.33,2.33,0,0,0-.07.25l-.09.31v.09l-.09.31c-.1.33-.2.65-.32,1a2.83,2.83,0,0,1-.11.31l-.06.17a21.81,21.81,0,0,1-2.93,5.33l-.23.31a22.26,22.26,0,0,1-1.87,2.13l-31.21,31.21-31.21-31.21a22.51,22.51,0,0,1-2.45-2.9c-.46-.66-.88-1.34-1.27-2a22,22,0,0,1-2.66-12.55A9.78,9.78,0,0,1,243,273c.1-.7.23-1.4.4-2.09a2.13,2.13,0,0,1,.1-.42l.06-.21v-.13a1.18,1.18,0,0,1,.08-.31h0c.07-.24.14-.48.22-.72s.08-.22.11-.33q.26-.71.54-1.38l.12-.28c.06-.13.12-.27.19-.41s.21-.44.32-.65V266h0l.15-.29.18-.33.24-.42.11-.19.07-.11h0l.15-.24c0-.09.11-.18.17-.27l.39-.59.15-.21.18-.25c.06-.08.12-.17.19-.25a3.55,3.55,0,0,1,.23-.31l.22-.27.07-.09.15-.19.25-.29.11-.12h0l.18-.21.21-.23.6-.63.24-.23.38-.36.25-.23.29-.26.2-.16.19-.17.4-.32.2-.16,1-.74.21-.14.21-.14.2-.12a2.9,2.9,0,0,1,.29-.19l.14-.08.22-.13c.28-.17.57-.33.86-.48l.18-.1.09-.14.22-.11.22-.11.22-.1.23-.1.22-.1.92-.37.22-.08.24-.09.22-.08.19-.06.42-.13.21-.07.18-.05h.17l.3-.08.4-.1c.42-.11.83-.2,1.25-.27h.66l.3-.05h.18c.4,0,.81-.1,1.21-.13h3.32l1,.1.43.05.29,0h.64c.42.07.84.16,1.25.26l.51.13h.14l.21.06.42.13.18,0c.31.1.61.2.91.32l.21.07.27.11.41.16.47.2.18.09.25.11.22.11.22.11.28.14.22.12.51.27.21.13c.25.14.5.29.74.45l.2.12.21.14.21.14h0a.71.71,0,0,1,.14.1l.87.63.2.16.4.32.19.17.2.16.29.26.25.23.38.36.24.23.24-.23.37-.36.25-.23.3-.26.19-.16.2-.17.4-.32.2-.16,1-.74.21-.14.21-.14.19-.12.3-.19.14-.08.22-.13c.28-.17.57-.33.86-.48a1,1,0,0,0,.17-.1l.27-.13.22-.11.23-.11.22-.1.23-.1.22-.1.91-.37.23-.08.24-.09.22-.08.18-.06.42-.13.22-.07.17,0h.17l.31-.08.4-.1c.41-.11.83-.2,1.25-.27h.65l.31,0h.18c.4,0,.8-.1,1.21-.13h3.35l1,.1.44,0,.29.05h.64c.42.07.83.16,1.25.26l.5.13h.14l.22.06.42.13.18,0c.31.1.61.2.91.32l.21.07.27.11.41.16.46.2.19.09.25.11.22.11.22.11.28.14.22.12.51.27.21.13c.25.14.5.29.74.45l.2.12.21.14.21.14h0l.14.1.87.63.2.16.4.32.19.17.2.16.25.23a2.73,2.73,0,0,1,.25.23l.15.13h0l.25.23.1.1.14.13.24.25.36.38.21.23.34.39.36.43a16.61,16.61,0,0,1,1.16,1.56l.15.22.15.24a1.37,1.37,0,0,1,.13.2c.08.12.15.24.22.36l.19.32.12.21.09.16.09.16.12.23c.05.08.09.17.13.25a18.74,18.74,0,0,1,.78,1.71l.1.25q.15.36.27.72l.08.23a1.39,1.39,0,0,0,.1.31l.09.28a.22.22,0,0,0,.05.17l.08.26c0,.11.06.21.08.32s.09.34.14.51l.06.27.09.39v.56a.33.33,0,0,1,0,.14v2.05a1.61,1.61,0,0,1,0,.31h0a.61.61,0,0,0,0,.19v.53h0v.34C317.3,275.78,317.76,276.09,317.76,276.31Z" transform="translate(0 -0.18)"/>
    <path class="cls-14" d="M308.11,435.55v2.32l-.09.71a1.06,1.06,0,0,1-.07.46h0v.48a2.21,2.21,0,0,1-.05.25,2,2,0,0,1,0,.24v.18a.57.57,0,0,1-.07.31h0l-.06.21-.06.26-.09.31v.08a2.52,2.52,0,0,1-.1.32c-.09.32-.2.65-.31,1l-.11.3a.87.87,0,0,1-.07.17,21.65,21.65,0,0,1-2.92,5.34l-.23.3a22.37,22.37,0,0,1-1.88,2.13l-31.2,31.21-31.21-31.21a22.51,22.51,0,0,1-2.45-2.9,21.8,21.8,0,0,1-1.27-2,22,22,0,0,1-2.66-12.55,7.88,7.88,0,0,1,.13-1.19c.1-.71.23-1.4.4-2.1a1.6,1.6,0,0,1,.1-.42l.06-.21v-.12l.09-.32h0c.08-.24.15-.48.23-.72l.11-.33c.17-.47.34-.93.54-1.39l-.15-.28.18-.41c.11-.22.21-.44.33-.66v-.05h0l.16-.29.18-.33c.07-.14.15-.28.23-.41l.12-.2.06-.11h0c0-.08.09-.16.14-.24s.12-.18.17-.27l.4-.59c.05-.07.09-.14.14-.2l.18-.25.19-.26.24-.31.21-.27.08-.09.15-.19.25-.29.11-.12h0l.19-.21.29-.25c.19-.21.39-.42.6-.62l.24-.24.37-.36.25-.22.3-.26.19-.17.2-.16c.13-.11.26-.22.4-.32a1.56,1.56,0,0,1,.2-.16c.33-.26.67-.51,1-.74l.21-.14.21-.14.19-.13.3-.18.14-.09.22-.13c.28-.17.57-.33.86-.48l.17-.09.27-.14.22-.11.23-.1.22-.11.22-.1.23-.1.91-.37.23-.08.24-.09.22-.07.18-.06.42-.14.22-.07.17-.05h.17l.31-.09.4-.1c.41-.1.83-.19,1.25-.27H252c.4,0,.8-.09,1.21-.12h3.32l1,.09.44.06h.93c.42.07.83.16,1.25.26l.5.14h.14l.22.07.42.12.18.06c.31.09.61.2.91.31l.21.08.27.1.41.17.46.2.19.08.25.12.22.1.22.11.28.14.22.12.51.28.21.12c.25.15.5.29.74.45l.2.13.21.14.21.14h0l.14.09.87.64.2.16.4.32.19.16.2.17.29.26.25.22.37.36.25.24.24-.24.37-.36.25-.22.29-.26.2-.17.19-.16.4-.32.2-.16,1-.74.21-.14.21-.14.2-.13.29-.18.15-.09.21-.13.87-.48.17-.09.27-.14.22-.11.22-.1.23-.11.22-.1.23-.1.91-.37.23-.08.24-.09.22-.07.18-.06.42-.14.22-.07.17-.05h.17l.3-.09.41-.1c.41-.1.83-.19,1.25-.27h1.13l1.21-.12h3.32a8.84,8.84,0,0,1,1,.09l.43.06h.94c.42.07.83.16,1.24.26l.51.14h.14l.22.07.42.12.18.06c.3.09.61.2.91.31l.2.08.27.1.41.17.47.2.18.08.25.12.23.1.22.11.28.14.22.12c.17.09.34.18.5.28l.22.12.74.45.2.13.21.14.2.14h0l.13.09c.3.21.59.42.87.64l.21.16.39.32.2.16.19.17.26.22.25.23.14.14h0l.24.23.11.11.13.13.24.24.37.39.21.22.34.39.36.43a18,18,0,0,1,1.16,1.56l.15.22.15.24.13.21.22.35.19.33.12.2.09.16c0,.05.05.11.08.16l.13.24c0,.08.08.16.13.24.28.56.54,1.14.78,1.72,0,.08.07.16.1.25l.27.72.07.22a1,1,0,0,0,.11.31,1.72,1.72,0,0,1,.08.28l.06.18.07.25.09.32c0,.17.09.34.13.52a2.68,2.68,0,0,1,.07.27,2.87,2.87,0,0,0,.08.38v3.06h0v.73h0v.34C307.57,435.05,308.12,435.33,308.11,435.55Z" transform="translate(0 -0.18)"/>
    <path class="cls-14" d="M391.21,333.22v1.63l-.06.5-.06.32h0v1h0v.14a.27.27,0,0,1,0,.19l-.06.22v.05l-.06.23c-.07.23-.15.46-.23.68s0,.15-.07.22l-.05.12a15.71,15.71,0,0,1-2.06,3.77l-.17.21A14.56,14.56,0,0,1,387,344l-22,22-22.05-22a15.66,15.66,0,0,1-4.51-12.35,6.34,6.34,0,0,1,.1-.85,14.65,14.65,0,0,1,.28-1.47,1.63,1.63,0,0,1,.07-.3v-.24l.06-.22h0c.05-.18.11-.35.16-.51l.08-.24c.12-.33.24-.65.38-1l.09-.19c0-.1.08-.19.13-.29l.22-.46h0a2.12,2.12,0,0,0,.11-.21l.13-.23a2.75,2.75,0,0,1,.17-.29.64.64,0,0,1,.08-.14V325h0l.11-.16.12-.19.28-.42.1-.15.12-.17.14-.19.17-.21a.9.9,0,0,1,.15-.19l0-.07.11-.13c.06-.07.11-.14.17-.2l.08-.09h0l.13-.14.15-.17.42-.44.17-.17.27-.25a1.29,1.29,0,0,0,.17-.16l.21-.18.14-.12.14-.11.28-.23.14-.11.72-.53.15-.1.15-.09.14-.09.2-.13.11-.06.15-.09c.2-.12.4-.24.61-.34l.12-.07.19-.1.16-.07.16-.08.15-.07.16-.07.16-.07.65-.26.16-.06.17-.06.15-.06h.13l.3-.1h.39l.22-.06.28-.07c.3-.08.59-.14.89-.19h.8c.28,0,.57-.07.85-.09H355l.68.07h1c.29.05.59.11.88.18l.36.1h.25l.3.08h.12l.65.22.14.06.19.07.29.12.33.14.13.06.18.08.16.08.15.07.2.1.15.09.36.19.15.09.53.32.14.09.14.09.15.1h0l.1.07c.21.14.41.29.61.45l.14.11.29.23.13.11.14.12.21.18.18.16a3.07,3.07,0,0,0,.26.25l.17.17.17-.17a3.07,3.07,0,0,0,.26-.25l.18-.16.21-.18.14-.12.13-.11.29-.23.14-.11c.23-.18.47-.36.72-.53l.15-.1.14-.09.14-.09.21-.13.1-.06.15-.09c.21-.12.41-.24.62-.34l.12-.07.19-.1.15-.07.16-.08.16-.07.16-.07.16-.07.64-.26.16-.06.17-.06.16-.06h.13l.29-.1h.4l.21-.06.29-.07c.29-.08.59-.14.88-.19h.81c.28,0,.56-.07.85-.09H377l.68.07h1l.87.18.36.1h.26l.29.08h.13l.64.22.15.06.19.07.29.12.33.14.13.06.17.08.16.08.16.07.19.1.16.09.36.19.15.09c.18.1.35.21.52.32l.14.09.15.09.15.1h0l.09.07c.21.14.42.29.62.45l.14.11a3.11,3.11,0,0,1,.28.23l.14.11.14.12.18.16.18.16.1.1h0l.17.17.07.07.1.09.17.18.26.27.14.16.24.27.26.31c.29.35.56.72.82,1.1l.1.15c0,.06.07.12.11.17l.09.15c.05.08.11.16.16.25l.13.23a.64.64,0,0,1,.08.14l.07.11.06.12.09.17.09.17c.2.39.38.8.55,1.21l.07.18c.07.17.13.33.19.51a.88.88,0,0,1,.05.15.25.25,0,0,0,.08.22l.06.2v.13a.25.25,0,0,0,.05.18l.06.22a1.61,1.61,0,0,0,.1.36c0,.12,0,.13,0,.2l.06.27v1.61a.81.81,0,0,0,0,.22.21.21,0,0,0,0,.11V332h0v.52h0v.24Z" transform="translate(0 -0.18)"/>
    <path class="cls-14" d="M627.2,417.7v1.64l-.06.5v.33h0v.16a.17.17,0,0,1,0,.1v.78h0v.33l-.06.22v.06a1.87,1.87,0,0,0-.07.22c-.07.23-.14.46-.22.69a1.8,1.8,0,0,0-.08.21l-.05.12a15.52,15.52,0,0,1-2.06,3.77l-.16.21a14.66,14.66,0,0,1-1.33,1.51L601.06,450.6l-22-22.05a14.12,14.12,0,0,1-1.73-2.05,14.27,14.27,0,0,1-.9-1.43,15.66,15.66,0,0,1-1.88-8.87,4,4,0,0,1,.09-.84,14.84,14.84,0,0,1,.28-1.48.43.43,0,0,1,.08-.3v-.24l.06-.22h0a2,2,0,0,1,.16-.51,2.25,2.25,0,0,0,.08-.24c.12-.33.25-.65.38-1l.09-.2a.81.81,0,0,1,.13-.29c.05-.1.15-.31.23-.46h0l.1-.21.13-.23c.06-.1.11-.2.17-.29a.64.64,0,0,1,.08-.14v-.08h0c0-.06.07-.12.11-.17l.12-.19.28-.42.1-.14.13-.18.13-.18.17-.22.15-.19v-.07l.11-.13.17-.2.08-.09h0l.13-.15.15-.16c.14-.15.28-.3.43-.44a1.37,1.37,0,0,1,.17-.17,3.07,3.07,0,0,1,.26-.25l.18-.16a1.8,1.8,0,0,1,.2-.19l.14-.12.14-.11.28-.23.14-.11c.24-.18.48-.36.72-.52l.15-.1.15-.1.14-.09.21-.13.1-.06.15-.09.61-.34.12-.07.19-.09.16-.08.16-.07.16-.08.15-.07.16-.07.65-.26.16-.06.17-.06.15-.05.13-.05.3-.09h.39l.22-.06.28-.07c.3-.07.59-.14.89-.19h.8l.86-.09h2.36l.69.07h1a8.6,8.6,0,0,1,.88.19l.36.09h.25l.3.09h.13l.64.22h.14l.19.07.29.12.33.14.13.06.18.09.16.07.15.08.2.1.16.08.35.2.16.08.52.32.14.09.15.1.14.1h0l.1.07.61.45.15.11.28.23.14.11.13.12.21.19.18.16.26.25a1.37,1.37,0,0,1,.17.17c.06-.06.11-.12.17-.17l.27-.25a1.29,1.29,0,0,1,.17-.16l.21-.19.14-.12.14-.11.28-.23.14-.11c.24-.18.48-.36.72-.52l.15-.1.15-.1.14-.09.2-.13.11-.06.15-.09.61-.34.12-.07.19-.09.16-.08.15-.07.16-.08.16-.07.16-.07.64-.26.16-.06.17-.06.16-.05.13-.05.3-.09h.39l.22-.06.28-.07c.29-.07.59-.14.88-.19h.81l.85-.09h2.37l.68.07h1c.29.05.59.11.88.19l.36.09h.25l.29.09h.13l.64.22h.15l.19.07.29.12.33.14.13.06.18.09.15.07.16.08.2.1.15.08.36.2.15.08c.18.1.35.21.52.32l.14.09.15.1.15.1h0l.1.07.61.45.14.11.28.23.14.11.14.12.18.16.18.16a.47.47,0,0,0,.1.1h0c0,.06.11.11.17.17l.08.07.09.1.17.17.26.27.14.16a2.09,2.09,0,0,1,.24.28l.26.3c.29.36.56.72.82,1.1,0,.05.07.1.1.16l.11.16.09.15c.06.08.11.17.16.25l.13.23.09.14.06.12.06.11.09.17.09.17c.2.4.39.8.55,1.21a1.34,1.34,0,0,1,.07.18c.07.17.13.34.19.51l.06.16a1.72,1.72,0,0,0,.07.21l.06.2v.31l.06.22a1.7,1.7,0,0,0,.1.37c0,.12,0,.12,0,.19l.06.27v2.16h0v.27a1,1,0,0,1,0,.24h0a1,1,0,0,1,0,.24Z" transform="translate(0 -0.18)"/>
    <path class="cls-14" d="M169.26,85.77v.36a.61.61,0,0,0,0,.19V88.1l-.09.7a2.33,2.33,0,0,1-.08.46h0v.49A.42.42,0,0,1,169,90c0,.08,0,.16,0,.24s0,.12,0,.18a3.12,3.12,0,0,1-.07.31h0a1.6,1.6,0,0,1,0,.21,2.5,2.5,0,0,1-.07.26,1.18,1.18,0,0,1-.08.31v.08a1,1,0,0,1-.1.32c-.09.32-.2.65-.31,1,0,.1-.08.2-.11.3a1.1,1.1,0,0,1-.07.17,21.65,21.65,0,0,1-2.92,5.34L165,99a22.48,22.48,0,0,1-1.88,2.14l-31.51,31.24-31.2-31.2A21.88,21.88,0,0,1,94,83.74a8.17,8.17,0,0,1,.14-1.2q.15-1,.39-2.1a1.46,1.46,0,0,1,.11-.41l.06-.22v-.12l.09-.32h0c.07-.24.15-.48.23-.72l.11-.33c.16-.47.34-.93.54-1.39l.12-.27.18-.41.32-.66h0c0-.1.1-.2.16-.3a2.68,2.68,0,0,1,.18-.33c.07-.14.15-.27.23-.41a1.28,1.28,0,0,0,.11-.2.41.41,0,0,0,.07-.11h0l.15-.24c.06-.09.11-.18.17-.26l.4-.6.14-.2.18-.25.19-.26.24-.31.21-.26.08-.1.15-.18a3.47,3.47,0,0,1,.25-.29.64.64,0,0,1,.1-.13h0l.18-.21.22-.23c.19-.21.39-.42.6-.62l.24-.24.37-.35.25-.23.3-.26.19-.17.2-.16.39-.32.2-.16,1-.74.2-.14.21-.14.2-.13.29-.18.15-.09.21-.13c.29-.16.58-.33.87-.48l.17-.09L106,66l.22-.1.23-.11.22-.11.22-.1.23-.1c.3-.13.61-.25.91-.36l.23-.09.24-.09.22-.07.18-.06.42-.14.34-.23.17,0H110l.31-.09.4-.1c.41-.1.83-.19,1.25-.27h1.14c.4,0,.8-.09,1.21-.12h3.35c.33,0,.65.06,1,.09l.44.06H120c.42.08.83.17,1.24.27l.51.13h.14l.22.06.42.12.18.06.91.31.2.08.27.1.42.17.46.2.18.08.26.12.22.11.22.1.28.15.22.11.51.28.21.12.74.45.2.13.21.14.2.14h0l.14.09.87.64.2.16.39.32.2.16.19.17.3.26.25.23.37.35.24.24.25-.24c.12-.12.24-.24.37-.35a2.73,2.73,0,0,1,.25-.23l.29-.26.2-.17.19-.16.4-.32.2-.16,1-.74.21-.14.21-.14.2-.13.29-.18.15-.09.21-.13c.29-.16.58-.33.87-.48l.17-.09.27-.14.22-.1.22-.11.23-.11.22-.1.23-.1c.3-.13.6-.25.91-.36l.22-.09.25-.09.22-.07.18-.06.42-.14.21-.06.18,0h.17l.3-.09.4-.1q.63-.15,1.26-.27h1.13c.4,0,.81-.09,1.21-.12h3.35l1,.09.43.06h.94c.41.08.83.17,1.24.27l.51.13h.14l.22.06.42.12.18.06.91.31.2.08.27.1.41.17.47.2.18.08.25.12.22.11.23.1.27.15.22.11.51.28.22.12.74.45.19.13.21.14.22.16h0l.13.09c.3.21.59.42.87.64a1.56,1.56,0,0,1,.2.16c.14.1.27.21.4.32l.2.16.19.17.26.22.25.23.14.14h0l.24.23.11.11.13.13.24.24.37.39a2.2,2.2,0,0,1,.2.23c.12.12.23.25.35.38l.36.43a17.92,17.92,0,0,1,1.15,1.56,1.73,1.73,0,0,1,.21.17,1.88,1.88,0,0,1,.16.23l.13.21.22.35.19.33.11.2.09.16.09.16.13.24.12.24c.29.56.55,1.14.79,1.72l.1.25c.09.24.18.48.26.72a2,2,0,0,1,.08.22,1.12,1.12,0,0,0,.1.31l.09.28.06.18a1,1,0,0,0,.07.25l.09.32c0,.17.09.35.13.52s0,.18.07.27.05.25.08.38V84h0v.73h0v.34Z" transform="translate(0 -0.18)"/>
  </g>
  <path class="cls-3" d="M169.26,85.77v.36a.61.61,0,0,0,0,.19V88.1l-.09.7a2.33,2.33,0,0,1-.08.46h0v.49A.42.42,0,0,1,169,90c0,.08,0,.16,0,.24s0,.12,0,.18a3.12,3.12,0,0,1-.07.31h0a1.6,1.6,0,0,1,0,.21,2.5,2.5,0,0,1-.07.26,1.18,1.18,0,0,1-.08.31v.08a1,1,0,0,1-.1.32c-.09.32-.2.65-.31,1,0,.1-.08.2-.11.3a1.1,1.1,0,0,1-.07.17,22,22,0,0,0-5.85-20.77,22.28,22.28,0,0,0-3.77-3c-.4-.25-.8-.49-1.21-.71a22,22,0,0,0-23.63,1.31,21.53,21.53,0,0,0-2.88,2.43,23.75,23.75,0,0,0-2.7-2.3h0a22.44,22.44,0,0,0-2.28-1.44,22.09,22.09,0,0,0-21.25,0A23.46,23.46,0,0,0,101.42,71a22.28,22.28,0,0,0-4.26,4.52c-.44.62-.85,1.26-1.22,1.91h0A18.47,18.47,0,0,0,95,79.3c-.16.35-.31.71-.45,1.07a1.46,1.46,0,0,1,.11-.41l.06-.22v-.12l.09-.32h0c.07-.24.15-.48.23-.72s.07-.22.11-.33c.16-.47.34-.93.54-1.39l.12-.27.18-.41.32-.66h0c0-.1.1-.2.16-.3a2.68,2.68,0,0,1,.18-.33c.07-.14.15-.27.23-.41a1.28,1.28,0,0,0,.11-.2.41.41,0,0,0,.07-.11h0l.15-.24c.06-.09.11-.18.17-.26l.4-.6.14-.2.18-.25.19-.26.24-.31.21-.26.08-.1.15-.18a3.47,3.47,0,0,1,.25-.29.64.64,0,0,1,.1-.13h0l.18-.21.22-.23c.19-.21.39-.42.6-.62l.24-.24.37-.35.25-.23.3-.26.19-.17.2-.16.39-.32.2-.16,1-.74.2-.14.21-.14.2-.13.29-.18.15-.09.21-.13c.29-.16.58-.33.87-.48l.17-.09.27-.14.22-.1.23-.11.22-.11.22-.1.23-.1c.3-.13.61-.25.91-.36l.23-.09.24-.09.22-.07.18-.06.42-.14.32-.16.17,0H110l.31-.09.4-.1c.41-.1.83-.19,1.25-.27h1.14c.4,0,.8-.09,1.21-.12h3.35c.33,0,.65.06,1,.09l.44.06H120c.42.08.83.17,1.24.27l.51.13h.14l.22.06.42.12.18.06.91.31.2.08.27.1.42.17.46.2.18.08.26.12.22.11.22.1.28.15.22.11.51.28.21.12.74.45.2.13.21.14.2.14h0l.14.09.87.64.2.16.39.32.2.16.19.17.3.26.25.23.37.35.24.24.25-.24c.12-.12.24-.24.37-.35a2.73,2.73,0,0,1,.25-.23l.29-.26.2-.17.19-.16.4-.32.2-.16,1-.74.21-.14.21-.14.2-.13.29-.18.15-.09.21-.13c.29-.16.58-.33.87-.48l.17-.09.27-.14.22-.1.22-.11.23-.11.22-.1.23-.1c.3-.13.6-.25.91-.36l.22-.09.25-.09.22-.07.18-.06.42-.14.21-.06.18,0h.17l.3-.09.4-.1q.63-.15,1.26-.27h1.13c.4,0,.81-.09,1.21-.12h3.35l1,.09.43.06h.94c.41.08.83.17,1.24.27l.51.13h.14l.22.06.42.12.18.06.91.31.2.08.27.1.41.17.47.2.18.08.25.12.22.11.23.1.27.15.22.11.51.28.22.12.74.45.19.13.21.14.22.16h0l.13.09c.3.21.59.42.87.64a1.56,1.56,0,0,1,.2.16c.14.1.27.21.4.32l.2.16.19.17.26.22.25.23.14.14h0l.24.23.11.11.13.13.24.24.37.39a2.2,2.2,0,0,1,.2.23c.12.12.23.25.35.38l.36.43a17.92,17.92,0,0,1,1.15,1.56,1.73,1.73,0,0,1,.21.17,1.88,1.88,0,0,1,.16.23l.13.21.22.35.19.33.11.2.09.16.09.16.13.24.12.24c.29.56.55,1.14.79,1.72l.1.25c.09.24.18.48.26.72a2,2,0,0,1,.08.22,1.12,1.12,0,0,0,.1.31l.09.28.06.18a1,1,0,0,0,.07.25l.09.32c0,.17.09.35.13.52s0,.18.07.27.05.25.08.38V84h0v.73h0v.34Z" transform="translate(0 -0.18)"/>
</svg>
